<svg width="257" height="292" viewBox="0 0 257 292" fill="none" xmlns="http://www.w3.org/2000/svg">
<path fill-rule="evenodd" clip-rule="evenodd" d="M178.564 202.254C170.219 254.42 149.168 291.443 124.518 291.443C92.5512 291.443 66.6368 229.176 66.6368 152.367C66.6368 134.942 67.9704 118.266 70.4058 102.896L178.564 202.254ZM181.668 174.539C182.15 167.319 182.4 159.913 182.4 152.367C182.4 75.557 156.485 13.2905 124.518 13.2905C104.062 13.2905 86.0848 38.7876 75.7901 77.2767L181.668 174.539ZM97.1854 191.758C98.427 220.585 110.52 243.208 125.255 243.208C139.991 243.208 152.084 220.585 153.326 191.758H97.1854Z" fill="white"/>
<path d="M51.1988 35.4674C57.7651 41.825 58.439 50.3214 60.5862 57.5259C63.3621 66.8396 66.04 74.7151 60.424 80.5284C54.7934 86.3568 46.938 83.8511 37.9275 80.9804C30.9991 78.773 23.1408 77.7804 16.5966 71.4442C1.54149 56.8677 -2.58877 36.6932 7.37139 26.3832C17.3315 16.0732 36.1437 20.891 51.1988 35.4674Z" fill="white"/>
<path d="M205.321 246.219C198.533 240.099 197.558 231.632 195.156 224.508C192.052 215.299 189.096 207.524 194.502 201.514C199.922 195.489 207.862 197.714 216.968 200.262C223.971 202.222 231.859 202.934 238.624 209.034C254.187 223.066 259.031 243.081 249.443 253.739C239.855 264.396 220.884 260.251 205.321 246.219Z" fill="white"/>
<path d="M35.9915 63.3672L41.9866 56.7504L203.952 203.828L197.957 210.445L35.9915 63.3672Z" fill="white"/>
</svg>
