<svg width="100" height="100" viewBox="0 0 100 100" fill="none" xmlns="http://www.w3.org/2000/svg">
<path d="M2.29816 11.4909L2.29816 42.5165C2.29816 44.9296 3.21743 47.2278 4.94107 48.9514L50.79 95.0301C54.3522 98.5923 60.2125 98.5923 63.7747 95.0301L94.5705 64.2344C98.1327 60.6722 98.1327 54.8118 94.5705 51.2496L48.4918 5.05598C46.7681 3.33234 44.4699 2.29815 41.9419 2.29815H11.4909C6.4349 2.29815 2.29816 6.43489 2.29816 11.4909ZM34.4728 25.2801C34.4728 30.3361 30.3361 34.4728 25.2801 34.4728C20.224 34.4728 16.0873 30.3361 16.0873 25.2801C16.0873 20.224 20.224 16.0873 25.2801 16.0873C30.3361 16.0873 34.4728 20.224 34.4728 25.2801Z" fill="#FFE53C"/>
<path d="M6.09015 4.02179H24.7055C27.4633 4.02179 30.1062 5.17088 32.0597 7.00943L83.9988 59.1784C88.0206 63.2002 88.0206 69.75 83.9988 73.7719L60.6722 97.0985C61.8213 96.6389 62.9704 95.9494 63.8896 95.0301L94.6854 64.2344C98.2476 60.6722 98.2476 54.8118 94.6854 51.2496L48.6067 5.05598C46.883 3.33233 44.5848 2.29814 42.0568 2.29814H11.4909C9.53743 2.29814 7.69888 2.9876 6.09015 4.02179Z" fill="#F2CB2C"/>
<path d="M99.5116 57.6846C99.5116 60.7871 98.3625 63.6599 96.1793 65.8431L65.3835 96.6389C60.902 101.12 53.6627 101.12 49.1813 96.6389L3.33238 50.5602C1.14909 48.3769 0 45.6191 0 42.5165L0 11.491C0 5.17093 5.17093 0 11.491 0H41.942C45.0445 0 47.9173 1.26401 50.1005 3.44729L96.1793 49.6409C98.3625 51.8242 99.5116 54.6969 99.5116 57.6846ZM4.59638 42.5165C4.59638 44.3551 5.28584 46.0787 6.54984 47.3427L52.3987 93.4214C55.0417 96.0643 59.4082 96.0643 62.166 93.4214L92.9618 62.6257C94.2258 61.3617 94.9153 59.638 94.9153 57.7995C94.9153 55.9609 94.2258 54.2373 92.9618 52.9733L46.8831 6.77966C45.5042 5.40075 43.7805 4.71129 41.942 4.71129H11.491C7.69894 4.71129 4.59638 7.81384 4.59638 11.6059L4.59638 42.5165ZM36.771 25.2801C36.771 31.6001 31.6001 36.771 25.2801 36.771C18.9601 36.771 13.7891 31.6001 13.7891 25.2801C13.7891 18.9601 18.9601 13.7891 25.2801 13.7891C31.6001 13.7891 36.771 18.9601 36.771 25.2801ZM18.3855 25.2801C18.3855 29.0721 21.4881 32.1747 25.2801 32.1747C29.0721 32.1747 32.1747 29.0721 32.1747 25.2801C32.1747 21.4881 29.0721 18.3855 25.2801 18.3855C21.4881 18.3855 18.3855 21.4881 18.3855 25.2801Z" fill="#C39215"/>
</svg>
